<svg id="Capa_1" enable-background="new 0 0 512 512" height="512" viewBox="0 0 512 512" width="512" xmlns="http://www.w3.org/2000/svg"><g><path d="m49.823 484.063-1.655-44.354c-.325-8.703-3.101-17.138-8.01-24.332l-29.754-43.604c-13.55-19.857-13.892-45.897-.868-66.103l50.718-78.626 34.071 114.403-13.455 143.624-26.43 2.967c-2.402.27-4.526-1.56-4.617-3.975z" fill="#f1d0a5"/><path d="m462.177 484.063 1.655-44.354c.325-8.703 3.101-17.138 8.01-24.332l29.754-43.604c13.55-19.857 13.892-45.897.868-66.103l-49.187-76.279-35.602 112.055 13.455 143.625 26.43 2.967c2.402.27 4.526-1.56 4.617-3.975z" fill="#f1d0a5"/><path d="m502.464 305.67-49.187-76.279-6.139 25.806 32.533 50.472c13.024 20.206 12.682 46.246-.868 66.104l-29.754 43.604c-4.909 7.194-7.686 15.629-8.01 24.332l-1.726 46.28 18.248 2.049c2.402.27 4.526-1.56 4.617-3.975l1.655-44.354c.325-8.703 3.101-17.138 8.01-24.332l29.754-43.604c13.549-19.857 13.891-45.897.867-66.103z" fill="#f1b986"/><path d="m431.099 351.854h-350.198c-12.995 0-23.529-10.534-23.529-23.529v-233.462c0-12.995 10.534-23.529 23.529-23.529h350.199c12.995 0 23.529 10.534 23.529 23.529v233.461c0 12.996-10.535 23.53-23.53 23.53z" fill="#365e7d"/><path d="m431.099 71.334h-15.977c12.995 0 23.529 10.535 23.529 23.529v233.461c0 12.995-10.534 23.529-23.529 23.529h15.977c12.995 0 23.53-10.534 23.53-23.529v-233.461c0-12.995-10.535-23.529-23.53-23.529z" fill="#2b4d66"/><path d="m420.871 103.812h-320.92c-.705 0-1.28.607-1.28 1.353v212.858c0 .746.574 1.353 1.28 1.353h320.92c.706 0 1.28-.607 1.28-1.353v-212.858c0-.746-.574-1.353-1.28-1.353z" fill="#d3effb"/><path d="m420.871 103.812h-17.093c.706 0 1.281.607 1.281 1.353v212.858c0 .746-.574 1.353-1.281 1.353h17.093c.706 0 1.281-.607 1.281-1.353v-212.858c-.001-.746-.575-1.353-1.281-1.353z" fill="#b1e4f9"/><g><path d="m78.223 224.9c-4.268 0-7.726-3.459-7.726-7.726v-11.159c0-4.268 3.459-7.726 7.726-7.726 4.268 0 7.726 3.459 7.726 7.726v11.159c0 4.267-3.458 7.726-7.726 7.726z" fill="#2b4d66"/></g><path d="m116.625 477.565.748-32.164c.133-5.71 1.159-11.363 3.042-16.755 5.289-15.146 2.294-31.954-7.902-44.34-2.146-2.607-2.482-6.261-.846-9.216l43.331-78.288c3.514-6.349 2.352-14.263-2.838-19.335-6.498-6.349-16.956-6.077-23.115.602l-72.078 78.164 4.742 54.473 19.161 74.365 32.047-3.471c2.074-.224 3.659-1.95 3.708-4.035z" fill="#f1d0a5"/><path d="m154.997 296.802c3.514-6.349 2.352-14.263-2.838-19.335-5.855-5.72-14.914-6.048-21.157-1.175.465.364.918.753 1.35 1.175 5.19 5.071 6.352 12.986 2.838 19.335l-43.331 78.288c-1.635 2.955-1.3 6.609.847 9.216 10.196 12.387 13.191 29.194 7.902 44.341-1.883 5.392-2.909 11.046-3.042 16.755l-.585 25.161c-.142 6.092-4.775 11.135-10.833 11.791l-3.672.398c-1.13.122-1.888 1.218-1.605 2.319l32.047-3.471c2.073-.225 3.659-1.95 3.707-4.035l.725-31.193c.14-6.013 1.061-12.008 3.05-17.684 5.31-15.157 2.318-31.985-7.887-44.383-2.146-2.607-2.482-6.261-.847-9.216z" fill="#f1b986"/><path d="m395.375 477.565-.748-32.164c-.133-5.71-1.159-11.363-3.042-16.755-5.289-15.146-2.294-31.954 7.902-44.34 2.146-2.607 2.482-6.261.846-9.216l-43.331-78.288c-3.514-6.349-2.352-14.263 2.838-19.335 6.498-6.349 16.956-6.077 23.115.602l72.078 78.164-4.742 54.473-19.161 74.365-32.047-3.471c-2.074-.224-3.659-1.95-3.708-4.035z" fill="#f1d0a5"/><path d="m502.871 131.262h-197.34c-5.041 0-9.128-4.087-9.128-9.128v-89.07c0-5.041 4.087-9.128 9.128-9.128h197.34c5.041 0 9.128 4.087 9.128 9.128v89.07c.001 5.041-4.086 9.128-9.128 9.128z" fill="#ffc250"/><path d="m502.871 23.936h-19.207c5.041 0 9.128 4.087 9.128 9.128v89.07c0 5.041-4.087 9.128-9.128 9.128h19.207c5.042 0 9.128-4.087 9.128-9.128v-89.07c.001-5.042-4.086-9.128-9.128-9.128z" fill="#ebb044"/><g><g><g><path d="m471.392 115.974c-7.729 0-14.999-3.13-19.945-8.587-2.866-3.162-2.626-8.048.535-10.913 3.162-2.865 8.049-2.626 10.913.535.747.824 3.566 3.512 8.496 3.512 2.863 0 4.394-1.64 4.544-2.476.074-.418-.927-1.618-3.675-2.632-6.408-2.364-12.106-4.899-12.345-5.006-.372-.166-.73-.361-1.072-.585-5.168-3.37-7.831-9.276-6.95-15.412.93-6.473 5.621-11.733 12.243-13.728 11.992-3.609 22.626 3.867 23.799 4.731 3.436 2.532 4.168 7.369 1.637 10.804-2.52 3.421-7.323 4.161-10.757 1.671-.175-.121-5.617-3.793-10.221-2.41-.827.249-1.338.661-1.405 1.129-.007.046-.01.082-.009.113 1.827.792 5.993 2.56 10.429 4.197 7.393 2.726 15.375 9.56 13.539 19.845-1.574 8.814-9.883 15.212-19.756 15.212z" fill="#f6f1f1"/></g></g><g><g><path d="m343.128 113.527c-14.404 0-26.123-11.718-26.123-26.123s11.718-26.123 26.123-26.123 26.123 11.719 26.123 26.123-11.718 26.123-26.123 26.123zm0-36.793c-5.883 0-10.67 4.787-10.67 10.67s4.787 10.67 10.67 10.67 10.67-4.787 10.67-10.67-4.786-10.67-10.67-10.67z" fill="#f6f1f1"/></g><g><path d="m361.525 115.974c-4.268 0-7.726-3.459-7.726-7.726v-41.687c0-4.268 3.459-7.726 7.726-7.726s7.726 3.459 7.726 7.726v41.686c0 4.268-3.459 7.727-7.726 7.727z" fill="#f6f1f1"/></g></g><g><g><g><path d="m430.291 115.974c-4.268 0-7.726-3.459-7.726-7.726v-61.297c0-4.268 3.459-7.726 7.726-7.726s7.726 3.459 7.726 7.726v61.296c.001 4.268-3.458 7.727-7.726 7.727z" fill="#f6f1f1"/></g></g><g><path d="m409.739 115.974c-15.594 0-28.28-12.686-28.28-28.28s12.686-28.28 28.28-28.28c15.593 0 28.279 12.686 28.279 28.28s-12.686 28.28-28.279 28.28zm0-41.107c-7.072 0-12.827 5.755-12.827 12.827s5.755 12.827 12.827 12.827 12.826-5.755 12.826-12.827-5.753-12.827-12.826-12.827z" fill="#f6f1f1"/></g></g></g><path d="m220.468 190.99h-76.869c-5.495 0-9.95-4.455-9.95-9.95v-23.074c0-5.495 4.455-9.95 9.95-9.95h76.869c5.495 0 9.95 4.455 9.95 9.95v23.074c0 5.496-4.455 9.95-9.95 9.95z" fill="#dd636e"/><path d="m220.468 148.016h-19.752c5.495 0 9.95 4.455 9.95 9.95v23.074c0 5.495-4.455 9.95-9.95 9.95h19.752c5.495 0 9.95-4.455 9.95-9.95v-23.074c0-5.495-4.455-9.95-9.95-9.95z" fill="#da4a54"/><path d="m325.072 291.951h-119.019c-5.186 0-9.391-4.204-9.391-9.391v-38.651c0-5.186 4.204-9.391 9.391-9.391h119.019c5.186 0 9.391 4.204 9.391 9.391v38.651c0 5.186-4.205 9.391-9.391 9.391z" fill="#95d6a4"/><path d="m325.072 234.518h-18.588c5.187 0 9.391 4.204 9.391 9.391v38.651c0 5.186-4.204 9.391-9.391 9.391h18.588c5.187 0 9.391-4.204 9.391-9.391v-38.651c-.001-5.187-4.205-9.391-9.391-9.391z" fill="#78c2a4"/><g><path d="m379.536 174.285h-110.766c-4.268 0-7.726-3.459-7.726-7.726s3.459-7.726 7.726-7.726h110.766c4.268 0 7.726 3.459 7.726 7.726s-3.459 7.726-7.726 7.726z" fill="#365e7d"/></g><g><path d="m338.329 206.344h-69.559c-4.268 0-7.726-3.459-7.726-7.726s3.459-7.726 7.726-7.726h69.558c4.268 0 7.726 3.459 7.726 7.726s-3.458 7.726-7.725 7.726z" fill="#365e7d"/></g></g></svg>