<svg height="512" viewBox="0 0 128 128" width="512" xmlns="http://www.w3.org/2000/svg"><g id="number"><text fill="#24253a" font-family="MyriadPro-Regular, Myriad Pro" font-size="40" letter-spacing=".002em" transform="translate(54.366 -510.265)">4<tspan x="-10.3" y="228">14</tspan><tspan x="-10.3" y="456">24</tspan><tspan x="-10.3" y="684">34</tspan><tspan x="-10.3" y="912">44</tspan><tspan x="-10.3" y="1140">54</tspan><tspan x="-10.3" y="1368">64</tspan><tspan x="-10.3" y="1596">74</tspan><tspan x="-10.3" y="1824">84</tspan><tspan x="-10.3" y="2052">94</tspan><tspan x="-20.599" y="2280">104</tspan><tspan x="-20.599" y="2508">114</tspan><tspan x="-20.599" y="2736">124</tspan><tspan x="-20.599" y="2964">134</tspan><tspan x="-20.599" y="3192">144</tspan><tspan x="-20.599" y="3420">154</tspan><tspan x="-20.599" y="3648">164</tspan><tspan x="-20.599" y="3876">174</tspan><tspan x="-20.599" y="4104">184</tspan><tspan x="-20.599" y="4332">194</tspan><tspan x="-20.599" y="4560">204</tspan><tspan x="-20.599" y="4788">214</tspan><tspan x="-20.599" y="5016">224</tspan><tspan x="-20.599" y="5244">234</tspan><tspan x="-20.599" y="5472">244</tspan></text></g><g id="icon"><rect fill="#c8cbd2" height="60.968" rx="2.069" width="83.032" x="42.478" y="32.453"/><g opacity=".5"><path d="m125.51 34.524v56.831a2.073 2.073 0 0 1 -2.069 2.069h-78.894a2.073 2.073 0 0 1 -2.069-2.069v-1.845h78.663a2.073 2.073 0 0 0 2.069-2.069v-54.986h.231a2.069 2.069 0 0 1 2.069 2.069z" fill="#9297ab"/></g><path d="m123.441 94.421h-78.894a3.072 3.072 0 0 1 -3.069-3.069v-56.831a3.072 3.072 0 0 1 3.069-3.068h78.895a3.072 3.072 0 0 1 3.068 3.068v56.832a3.072 3.072 0 0 1 -3.069 3.068zm-78.894-60.968a1.07 1.07 0 0 0 -1.069 1.068v56.832a1.07 1.07 0 0 0 1.069 1.069h78.895a1.07 1.07 0 0 0 1.068-1.069v-56.832a1.07 1.07 0 0 0 -1.068-1.068z" fill="#2f3a5a"/><path d="m46.682 36.659h74.623v47.506h-74.623z" fill="#b9ddfc"/><path d="m99.219 105.676h-30.45l-.033-12.255h30.516z" fill="#b0b3c1"/><g opacity=".5"><path d="m99.217 105.675h-4.508l.15-12.25h4.389z" fill="#c8cbd2"/></g><path d="m99.219 106.676h-30.45a1 1 0 0 1 -1-1l-.033-12.254a1 1 0 0 1 1-1h30.516a1 1 0 0 1 1 1l-.034 12.254a1 1 0 0 1 -.999 1zm-29.453-2h28.456l.028-10.254h-28.511z" fill="#2f3a5a"/><circle cx="83.533" cy="88.921" fill="#707583" r="1.84"/><path d="m83.533 91.761a2.84 2.84 0 1 1 2.84-2.84 2.843 2.843 0 0 1 -2.84 2.84zm0-3.68a.84.84 0 1 0 .84.84.841.841 0 0 0 -.84-.84z" fill="#2f3a5a"/><path d="m94.189 36.659-33.24 47.506h-4.184l33.246-47.506z" fill="#cee7fd"/><path d="m106.742 36.659-33.246 47.506h-8.019l33.239-47.506z" fill="#cee7fd"/><path d="m121.3 85.165h-74.614a1 1 0 0 1 -1-1v-47.505a1 1 0 0 1 1-1h74.614a1 1 0 0 1 1 1v47.5a1 1 0 0 1 -1 1.005zm-73.617-2h72.617v-45.505h-72.614z" fill="#2f3a5a"/><path d="m104 101.856h-40.015a2.388 2.388 0 0 0 0 4.776h40.015a2.388 2.388 0 0 0 0-4.776z" fill="#b0b3c1"/><g opacity=".5"><path d="m106.393 104.245a2.391 2.391 0 0 1 -2.393 2.385h-5.8a2.389 2.389 0 1 0 0-4.778h5.8a2.4 2.4 0 0 1 2.393 2.393z" fill="#c8cbd2"/></g><path d="m104 107.632h-40.015a3.388 3.388 0 1 1 0-6.776h40.015a3.388 3.388 0 1 1 0 6.776zm-40.018-4.776a1.388 1.388 0 1 0 0 2.776h40.018a1.388 1.388 0 1 0 0-2.776z" fill="#2f3a5a"/><rect fill="#c8cbd2" height="74.177" rx="2.969" width="35.363" x="1.804" y="32.455"/><path d="m34.342 32.461a.022.022 0 0 0 -.022.021v68.178a2.99 2.99 0 0 1 -2.99 2.99h-29.4a.573.573 0 0 1 -.13-.01 2.99 2.99 0 0 0 2.99 2.99h29.39a2.99 2.99 0 0 0 2.99-2.99v-68.22a2.958 2.958 0 0 0 -2.828-2.959z" fill="#b0b3c1"/><path d="m34.2 107.632h-29.427a3.974 3.974 0 0 1 -3.973-3.969v-68.239a3.974 3.974 0 0 1 3.969-3.969h29.431a3.974 3.974 0 0 1 3.969 3.969v68.238a3.974 3.974 0 0 1 -3.969 3.97zm-29.427-74.177a1.971 1.971 0 0 0 -1.973 1.969v68.238a1.971 1.971 0 0 0 1.969 1.969h29.431a1.971 1.971 0 0 0 1.969-1.969v-68.238a1.971 1.971 0 0 0 -1.969-1.969z" fill="#2f3a5a"/><path d="m6.376 38.118h25.462v8.095h-25.462z" fill="#b0b3c1"/><path d="m6.376 51.172h25.462v8.095h-25.462z" fill="#b0b3c1"/><path d="m6.376 64.226h25.462v8.095h-25.462z" fill="#b0b3c1"/><path d="m31.84 38.12v8.09h-25.46v-3.43h22.63v-4.66z" fill="#9297ab"/><path d="m31.84 51.17v8.1h-25.46v-3.43h22.63v-4.67z" fill="#9297ab"/><path d="m31.84 64.23v8.09h-25.46v-3.43h22.63v-4.66z" fill="#9297ab"/><g fill="#2f3a5a"><path d="m31.838 47.212h-25.462a1 1 0 0 1 -1-1v-8.094a1 1 0 0 1 1-1h25.462a1 1 0 0 1 1 1v8.095a1 1 0 0 1 -1 .999zm-24.462-2h23.462v-6.094h-23.462z"/><path d="m31.838 60.267h-25.462a1 1 0 0 1 -1-1v-8.095a1 1 0 0 1 1-1h25.462a1 1 0 0 1 1 1v8.095a1 1 0 0 1 -1 1zm-24.462-2h23.462v-6.095h-23.462z"/><path d="m31.838 73.32h-25.462a1 1 0 0 1 -1-1v-8.094a1 1 0 0 1 1-1h25.462a1 1 0 0 1 1 1v8.094a1 1 0 0 1 -1 1zm-24.462-2h23.462v-6.094h-23.462z"/></g><circle cx="19.107" cy="82.463" fill="#ef5361" r="2.827"/><path d="m19.107 86.29a3.827 3.827 0 1 1 3.827-3.827 3.831 3.831 0 0 1 -3.827 3.827zm0-5.654a1.827 1.827 0 1 0 1.827 1.827 1.829 1.829 0 0 0 -1.827-1.827z" fill="#2f3a5a"/><circle cx="19.107" cy="93.424" fill="#8ae0a1" r="2.827"/><path d="m19.107 97.251a3.827 3.827 0 1 1 3.827-3.828 3.832 3.832 0 0 1 -3.827 3.828zm0-5.655a1.827 1.827 0 1 0 1.827 1.827 1.829 1.829 0 0 0 -1.827-1.823z" fill="#2f3a5a"/></g></svg>