<svg height="512" viewBox="0 0 128 128" width="512" xmlns="http://www.w3.org/2000/svg"><g id="number"><text fill="#24253a" font-family="MyriadPro-Regular, Myriad Pro" font-size="40" letter-spacing=".002em" transform="translate(58.977 -54.265)">3<tspan x="-10.3" y="228">13</tspan><tspan x="-10.3" y="456">23</tspan><tspan x="-10.3" y="684">33</tspan><tspan x="-10.3" y="912">43</tspan><tspan x="-10.3" y="1140">53</tspan><tspan x="-10.3" y="1368">63</tspan><tspan x="-10.3" y="1596">73</tspan><tspan x="-10.3" y="1824">83</tspan><tspan x="-10.3" y="2052">93</tspan><tspan x="-20.599" y="2280">103</tspan><tspan x="-20.599" y="2508">113</tspan><tspan x="-20.599" y="2736">123</tspan><tspan x="-20.599" y="2964">133</tspan><tspan x="-20.599" y="3192">143</tspan><tspan x="-20.599" y="3420">153</tspan><tspan x="-20.599" y="3648">163</tspan><tspan x="-20.599" y="3876">173</tspan><tspan x="-20.599" y="4104">183</tspan><tspan x="-20.599" y="4332">193</tspan><tspan x="-20.599" y="4560">203</tspan><tspan x="-20.599" y="4788">213</tspan><tspan x="-20.599" y="5016">223</tspan><tspan x="-20.599" y="5244">233</tspan><tspan x="-20.599" y="5472">243</tspan></text></g><g id="icon"><path d="m63.822 40.589a1 1 0 0 1 -1-1v-11.164a6.527 6.527 0 0 1 6.52-6.52h41a5.233 5.233 0 0 0 0-10.465h-85.393a6.527 6.527 0 0 1 -6.52-6.52v-.92a1 1 0 0 1 2 0v.921a4.525 4.525 0 0 0 4.52 4.52h85.391a7.233 7.233 0 0 1 0 14.465h-41a4.525 4.525 0 0 0 -4.52 4.52v11.163a1 1 0 0 1 -.998 1z" fill="#2f3a5a"/><path d="m59.009 34.704h9.627v11.385h-9.627z" fill="#84879c"/><path d="m68.636 47.088h-9.627a1 1 0 0 1 -1-1v-11.388a1 1 0 0 1 1-1h9.627a1 1 0 0 1 1 1v11.388a1 1 0 0 1 -1 1zm-8.627-2h7.627v-9.388h-7.627z" fill="#2f3a5a"/><path d="m123.511 58.017c-3.059-14.153-15.8-23.409-28.447-20.675a21.1 21.1 0 0 0 -5.364 1.948 47.535 47.535 0 0 1 -22.135 5.28h-7.126a47.537 47.537 0 0 1 -22.139-5.28 21.1 21.1 0 0 0 -5.367-1.948c-12.649-2.735-25.385 6.522-28.444 20.675s-9.287 62.908 9.5 66.97c6.808 1.472 13.672-5.611 19.6-15.425a28.8 28.8 0 0 1 24.676-13.843h11.47a28.8 28.8 0 0 1 24.675 13.842c5.925 9.815 12.788 16.9 19.6 15.425 18.79-4.061 12.56-52.817 9.501-66.969z" fill="#c8cbd2"/><path d="m114.01 124.982c-6.81 1.48-13.68-5.61-19.6-15.42a28.813 28.813 0 0 0 -24.68-13.84h-11.46a28.813 28.813 0 0 0 -24.68 13.84c-5.92 9.81-12.79 16.9-19.6 15.42-11.02-2.382-13.44-20.14-12.93-37.282.46 14.3 3.62 27.27 12.93 29.28 6.81 1.48 13.68-5.61 19.6-15.42a28.791 28.791 0 0 1 24.68-13.84h11.46a28.791 28.791 0 0 1 24.68 13.84c5.92 9.81 12.79 16.9 19.6 15.42 9.31-2.01 12.47-14.98 12.93-29.28.51 17.142-1.91 34.9-12.93 37.282z" fill="#b0b3c1"/><path d="m112.171 126.183c-5.905 0-12.158-5.4-18.618-16.105a27.932 27.932 0 0 0 -23.818-13.359h-11.47a27.931 27.931 0 0 0 -23.818 13.358c-7.212 11.946-14.163 17.291-20.665 15.886-8.59-1.856-13.211-12.168-13.734-30.649a177.711 177.711 0 0 1 3.464-37.509 28.688 28.688 0 0 1 11.015-17.267 23.1 23.1 0 0 1 18.621-4.173 22.135 22.135 0 0 1 5.621 2.041 46.711 46.711 0 0 0 21.67 5.165h7.123a46.7 46.7 0 0 0 21.669-5.165 22.135 22.135 0 0 1 5.621-2.041 23.09 23.09 0 0 1 18.621 4.173 28.688 28.688 0 0 1 11.016 17.268 177.711 177.711 0 0 1 3.464 37.509c-.523 18.481-5.145 28.793-13.734 30.65a9.656 9.656 0 0 1 -2.048.218zm-53.906-31.464h11.47a29.941 29.941 0 0 1 25.531 14.325c4.622 7.655 11.588 16.469 18.529 14.964 9.434-2.039 11.818-16.76 12.158-28.751a175.387 175.387 0 0 0 -3.419-37.029 26.692 26.692 0 0 0 -10.234-16.073 21.115 21.115 0 0 0 -17.022-3.836 20.132 20.132 0 0 0 -5.113 1.856 48.715 48.715 0 0 1 -22.6 5.394h-7.126a48.722 48.722 0 0 1 -22.6-5.394 20.132 20.132 0 0 0 -5.113-1.856 21.125 21.125 0 0 0 -17.026 3.836 26.692 26.692 0 0 0 -10.233 16.073 175.387 175.387 0 0 0 -3.42 37.029c.339 11.991 2.724 26.713 12.158 28.751 6.943 1.508 13.908-7.309 18.53-14.964a29.941 29.941 0 0 1 25.53-14.325z" fill="#2f3a5a"/><circle cx="84.293" cy="70.091" fill="#d9e2e9" r="5.066"/><path d="m84.293 76.158a6.066 6.066 0 1 1 6.066-6.066 6.073 6.073 0 0 1 -6.066 6.066zm0-10.132a4.066 4.066 0 1 0 4.066 4.066 4.07 4.07 0 0 0 -4.066-4.067z" fill="#2f3a5a"/><circle cx="107.147" cy="70.091" fill="#d9e2e9" r="5.066"/><path d="m107.147 76.158a6.066 6.066 0 1 1 6.066-6.066 6.073 6.073 0 0 1 -6.066 6.066zm0-10.132a4.066 4.066 0 1 0 4.066 4.066 4.07 4.07 0 0 0 -4.066-4.067z" fill="#2f3a5a"/><circle cx="95.72" cy="58.665" fill="#d9e2e9" r="5.066"/><path d="m95.72 64.73a6.066 6.066 0 1 1 6.066-6.066 6.073 6.073 0 0 1 -6.066 6.066zm0-10.132a4.066 4.066 0 1 0 4.066 4.066 4.07 4.07 0 0 0 -4.066-4.064z" fill="#2f3a5a"/><circle cx="95.72" cy="81.518" fill="#d9e2e9" r="5.066"/><path d="m95.72 87.584a6.066 6.066 0 1 1 6.066-6.066 6.073 6.073 0 0 1 -6.066 6.066zm0-10.132a4.066 4.066 0 1 0 4.066 4.066 4.07 4.07 0 0 0 -4.066-4.066z" fill="#2f3a5a"/><path d="m39.6 67.315h-9.43v-9.434a2.777 2.777 0 1 0 -5.553 0v9.434h-9.434a2.777 2.777 0 0 0 0 5.553h9.434v9.432a2.777 2.777 0 1 0 5.553 0v-9.432h9.43a2.777 2.777 0 1 0 0-5.553z" fill="#d9e2e9"/><path d="m27.394 86.079a3.781 3.781 0 0 1 -3.777-3.779v-8.432h-8.434a3.777 3.777 0 0 1 0-7.553h8.434v-8.434a3.777 3.777 0 0 1 7.553 0v8.434h8.43a3.777 3.777 0 1 1 0 7.553h-8.43v8.432a3.781 3.781 0 0 1 -3.776 3.779zm-12.211-17.764a1.777 1.777 0 0 0 0 3.553h9.434a1 1 0 0 1 1 1v9.432a1.777 1.777 0 1 0 3.553 0v-9.432a1 1 0 0 1 1-1h9.43a1.777 1.777 0 1 0 0-3.553h-9.43a1 1 0 0 1 -1-1v-9.434a1.777 1.777 0 0 0 -3.553 0v9.434a1 1 0 0 1 -1 1z" fill="#2f3a5a"/></g></svg>