<svg height="512" viewBox="0 0 128 128" width="512" xmlns="http://www.w3.org/2000/svg"><g id="icon"><path d="m117.887 54.887v46.687h-5.894v-46.687a47.994 47.994 0 0 0 -95.987 0v46.687h-5.893v-46.687a53.887 53.887 0 0 1 107.775 0z" fill="#9297ab"/><path d="m117.887 102.574h-5.894a1 1 0 0 1 -1-1v-46.687a46.994 46.994 0 1 0 -93.987 0v46.687a1 1 0 0 1 -1 1h-5.893a1 1 0 0 1 -1-1v-46.687a54.887 54.887 0 1 1 109.774 0v46.687a1 1 0 0 1 -1 1zm-4.894-2h3.894v-45.687a52.887 52.887 0 1 0 -105.774 0v45.687h3.894v-45.687a48.994 48.994 0 1 1 97.987 0z" fill="#2f3a5a"/><rect fill="#9297ab" height="39.766" rx="2.93" width="12.72" x="106.172" y="81.689"/><path d="m115.96 81.69h-1.4v32.2a2.928 2.928 0 0 1 -2.93 2.93h-5.46v1.7a2.928 2.928 0 0 0 2.93 2.93h6.86a2.928 2.928 0 0 0 2.93-2.93v-33.9a2.928 2.928 0 0 0 -2.93-2.93z" fill="#707583"/><path d="m115.962 122.455h-6.862a3.935 3.935 0 0 1 -3.93-3.93v-33.906a3.935 3.935 0 0 1 3.93-3.93h6.859a3.935 3.935 0 0 1 3.93 3.93v33.905a3.935 3.935 0 0 1 -3.927 3.931zm-6.862-39.766a1.932 1.932 0 0 0 -1.93 1.93v33.905a1.932 1.932 0 0 0 1.93 1.93h6.859a1.932 1.932 0 0 0 1.93-1.93v-33.905a1.932 1.932 0 0 0 -1.93-1.93z" fill="#2f3a5a"/><rect fill="#84879c" height="42.774" rx="3.152" width="13.682" x="85.424" y="80.185"/><path d="m95.954 123.958h-7.378a4.156 4.156 0 0 1 -4.152-4.152v-36.469a4.156 4.156 0 0 1 4.152-4.152h7.378a4.156 4.156 0 0 1 4.152 4.152v36.47a4.156 4.156 0 0 1 -4.152 4.151zm-7.378-42.773a2.154 2.154 0 0 0 -2.152 2.152v36.47a2.154 2.154 0 0 0 2.152 2.152h7.378a2.154 2.154 0 0 0 2.152-2.152v-36.47a2.154 2.154 0 0 0 -2.152-2.152z" fill="#2f3a5a"/><rect fill="#c1cdd3" height="50.856" rx="3.747" width="16.268" x="91.225" y="76.144"/><g opacity=".5"><path d="m107.49 79.89v43.36a3.749 3.749 0 0 1 -3.74 3.75h-8.78a3.751 3.751 0 0 1 -3.75-3.75v-1.8h6.72a3.743 3.743 0 0 0 3.75-3.74v-41.57h2.06a3.749 3.749 0 0 1 3.74 3.75z" fill="#9297ab"/></g><path d="m103.745 128h-8.773a4.753 4.753 0 0 1 -4.748-4.748v-43.361a4.753 4.753 0 0 1 4.748-4.748h8.773a4.753 4.753 0 0 1 4.748 4.748v43.361a4.753 4.753 0 0 1 -4.748 4.748zm-8.773-50.856a2.751 2.751 0 0 0 -2.748 2.748v43.361a2.751 2.751 0 0 0 2.748 2.747h8.773a2.751 2.751 0 0 0 2.748-2.748v-43.361a2.751 2.751 0 0 0 -2.748-2.748z" fill="#2f3a5a"/><rect fill="#9297ab" height="39.766" rx="2.93" width="12.72" x="9.108" y="81.689"/><path d="m12.04 81.69h1.4v32.2a2.928 2.928 0 0 0 2.93 2.93h5.46v1.7a2.928 2.928 0 0 1 -2.93 2.93h-6.86a2.928 2.928 0 0 1 -2.93-2.93v-33.9a2.928 2.928 0 0 1 2.93-2.93z" fill="#707583"/><path d="m18.9 122.455h-6.862a3.935 3.935 0 0 1 -3.93-3.93v-33.906a3.935 3.935 0 0 1 3.93-3.93h6.862a3.935 3.935 0 0 1 3.93 3.93v33.905a3.935 3.935 0 0 1 -3.93 3.931zm-6.862-39.766a1.932 1.932 0 0 0 -1.93 1.93v33.905a1.932 1.932 0 0 0 1.93 1.93h6.862a1.932 1.932 0 0 0 1.93-1.93v-33.905a1.932 1.932 0 0 0 -1.93-1.93z" fill="#2f3a5a"/><rect fill="#84879c" height="42.774" rx="3.152" width="13.682" x="28.894" y="80.185"/><path d="m39.424 123.958h-7.378a4.156 4.156 0 0 1 -4.152-4.152v-36.469a4.156 4.156 0 0 1 4.152-4.152h7.378a4.156 4.156 0 0 1 4.152 4.152v36.47a4.156 4.156 0 0 1 -4.152 4.151zm-7.378-42.773a2.154 2.154 0 0 0 -2.152 2.152v36.47a2.154 2.154 0 0 0 2.152 2.152h7.378a2.154 2.154 0 0 0 2.152-2.152v-36.47a2.154 2.154 0 0 0 -2.152-2.152z" fill="#2f3a5a"/><rect fill="#c1cdd3" height="50.856" rx="3.747" width="16.268" x="20.507" y="76.144"/><g opacity=".5"><path d="m20.51 79.89v43.36a3.749 3.749 0 0 0 3.74 3.75h8.78a3.751 3.751 0 0 0 3.75-3.75v-1.8h-6.72a3.743 3.743 0 0 1 -3.75-3.74v-41.57h-2.06a3.749 3.749 0 0 0 -3.74 3.75z" fill="#9297ab"/></g><path d="m33.028 128h-8.773a4.753 4.753 0 0 1 -4.748-4.748v-43.361a4.753 4.753 0 0 1 4.748-4.748h8.773a4.753 4.753 0 0 1 4.748 4.748v43.361a4.753 4.753 0 0 1 -4.748 4.748zm-8.773-50.856a2.751 2.751 0 0 0 -2.748 2.748v43.361a2.751 2.751 0 0 0 2.748 2.747h8.773a2.751 2.751 0 0 0 2.748-2.748v-43.361a2.751 2.751 0 0 0 -2.748-2.748z" fill="#2f3a5a"/></g></svg>