<svg height="512" viewBox="0 0 128 128" width="512" xmlns="http://www.w3.org/2000/svg"><g id="icon"><rect fill="#9297ab" height="126" rx="10.908" width="78.346" x="24.827" y="1"/><g opacity=".5"><path d="m103.17 11.91v104.18a10.9 10.9 0 0 1 -10.9 10.91h-4.25a10.9 10.9 0 0 0 10.91-10.91v-104.18a10.9 10.9 0 0 0 -10.91-10.91h4.25a10.9 10.9 0 0 1 10.9 10.91z" fill="#707583"/></g><path d="m92.265 128h-56.53a11.921 11.921 0 0 1 -11.908-11.908v-104.184a11.921 11.921 0 0 1 11.908-11.908h56.53a11.921 11.921 0 0 1 11.908 11.908v104.184a11.921 11.921 0 0 1 -11.908 11.908zm-56.53-126a9.919 9.919 0 0 0 -9.908 9.908v104.184a9.919 9.919 0 0 0 9.908 9.908h56.53a9.919 9.919 0 0 0 9.908-9.908v-104.184a9.919 9.919 0 0 0 -9.908-9.908z" fill="#2f3a5a"/><path d="m31.693 19.248h64.61v89.502h-64.61z" fill="#5fc4f8"/><path d="m74.193 11.174h-.84a1 1 0 0 1 0-2h.84a1 1 0 0 1 0 2z" fill="#2f3a5a"/><path d="m68.872 11.174h-15.065a1 1 0 0 1 0-2h15.065a1 1 0 0 1 0 2z" fill="#2f3a5a"/><path d="m59.758 114.676h8.483v6.194h-8.483z" fill="#707583"/><path d="m68.242 121.87h-8.484a1 1 0 0 1 -1-1v-6.194a1 1 0 0 1 1-1h8.483a1 1 0 0 1 1 1v6.194a1 1 0 0 1 -.999 1zm-7.483-2h6.483v-4.194h-6.484z" fill="#2f3a5a"/><g fill="#f0f5f9" opacity=".5"><path d="m96.303 19.248v1.809l-64.61 64.61v-4.997l61.422-61.422z"/><path d="m96.303 27.712v11.652l-64.61 64.61v-11.652z"/></g><path d="m96.3 109.752h-64.6a1 1 0 0 1 -1-1v-89.5a1 1 0 0 1 1-1h64.6a1 1 0 0 1 1 1v89.5a1 1 0 0 1 -1 1zm-63.609-2h62.609v-87.5h-62.6z" fill="#2f3a5a"/></g></svg>