<svg height="512" viewBox="0 0 128 128" width="512" xmlns="http://www.w3.org/2000/svg"><g id="number"><text fill="#24253a" font-family="MyriadPro-Regular, Myriad Pro" font-size="40" letter-spacing=".002em" transform="translate(55.973 -54.265)">7<tspan x="-10.3" y="228">17</tspan><tspan x="-10.3" y="456">27</tspan><tspan x="-10.3" y="684">37</tspan><tspan x="-10.3" y="912">47</tspan><tspan x="-10.3" y="1140">57</tspan><tspan x="-10.3" y="1368">67</tspan><tspan x="-10.3" y="1596">77</tspan><tspan x="-10.3" y="1824">87</tspan><tspan x="-10.3" y="2052">97</tspan><tspan x="-20.599" y="2280">107</tspan><tspan x="-20.599" y="2508">117</tspan><tspan x="-20.599" y="2736">127</tspan><tspan x="-20.599" y="2964">137</tspan><tspan x="-20.599" y="3192">147</tspan><tspan x="-20.599" y="3420">157</tspan><tspan x="-20.599" y="3648">167</tspan><tspan x="-20.599" y="3876">177</tspan><tspan x="-20.599" y="4104">187</tspan><tspan x="-20.599" y="4332">197</tspan><tspan x="-20.599" y="4560">207</tspan><tspan x="-20.599" y="4788">217</tspan><tspan x="-20.599" y="5016">227</tspan><tspan x="-20.599" y="5244">237</tspan><tspan x="-20.599" y="5472">247</tspan></text></g><g id="icon"><rect fill="#d9e2e9" height="124.378" rx="5.637" width="79.373" x="1" y="1.811"/><g opacity=".5"><path d="m80.37 7.45v113.1a5.631 5.631 0 0 1 -5.63 5.64h-68.1a5.618 5.618 0 0 1 -5.59-4.95c.16.01.31.02.47.02h68.1a5.638 5.638 0 0 0 5.64-5.63v-113.11a4 4 0 0 0 -.05-.69 5.634 5.634 0 0 1 5.16 5.62z" fill="#c1cdd3"/></g><path d="m74.736 127.189h-68.099a6.644 6.644 0 0 1 -6.637-6.636v-113.106a6.644 6.644 0 0 1 6.637-6.636h68.1a6.644 6.644 0 0 1 6.637 6.637v113.105a6.644 6.644 0 0 1 -6.638 6.636zm-68.099-124.378a4.642 4.642 0 0 0 -4.637 4.636v113.106a4.642 4.642 0 0 0 4.637 4.637h68.1a4.642 4.642 0 0 0 4.637-4.637v-113.106a4.642 4.642 0 0 0 -4.637-4.637z" fill="#2f3a5a"/><path d="m9.839 11.4h61.695v61.695h-61.695z" fill="#5fc4f8"/><path d="m71.53 11.4v4.51h-57.18v57.18h-4.51v-61.69z" fill="#81dafc"/><path d="m71.534 74.094h-61.695a1 1 0 0 1 -1-1v-61.694a1 1 0 0 1 1-1h61.7a1 1 0 0 1 1 1v61.694a1 1 0 0 1 -1.005 1zm-60.7-2h59.7v-59.694h-59.7z" fill="#2f3a5a"/><path d="m59.574 99.655-8.506-6.777v13.555z" fill="#c1cdd3"/><path d="m51.068 107.433a1 1 0 0 1 -1-1v-13.555a1 1 0 0 1 1.623-.782l8.5 6.777a1 1 0 0 1 0 1.564l-8.5 6.777a1 1 0 0 1 -.623.219zm1-12.479v9.4l5.9-4.7z" fill="#2f3a5a"/><path d="m21.8 99.656 8.505 6.777v-13.555z" fill="#c1cdd3"/><path d="m30.3 107.433a1 1 0 0 1 -.623-.218l-8.5-6.777a1 1 0 0 1 0-1.564l8.5-6.777a1 1 0 0 1 1.623.782v13.554a1 1 0 0 1 -1 1zm-6.9-7.777 5.9 4.7v-9.4z" fill="#2f3a5a"/><path d="m40.687 117.293 6.777-8.505h-13.555z" fill="#c1cdd3"/><path d="m40.687 118.293a1 1 0 0 1 -.782-.377l-6.777-8.505a1 1 0 0 1 .782-1.623h13.554a1 1 0 0 1 .782 1.623l-6.777 8.505a1 1 0 0 1 -.782.377zm-4.7-8.505 4.7 5.9 4.7-5.9z" fill="#2f3a5a"/><path d="m40.686 80.769-6.777 8.505h13.555z" fill="#c1cdd3"/><path d="m47.464 90.274h-13.555a1 1 0 0 1 -.782-1.623l6.773-8.505a1.035 1.035 0 0 1 1.564 0l6.777 8.505a1 1 0 0 1 -.782 1.623zm-11.479-2h9.4l-4.7-5.9z" fill="#2f3a5a"/><path d="m35.569 93.913h10.236v10.236h-10.236z" fill="#c1cdd3"/><path d="m45.8 105.149h-10.232a1 1 0 0 1 -1-1v-10.236a1 1 0 0 1 1-1h10.232a1 1 0 0 1 1 1v10.236a1 1 0 0 1 -1 1zm-9.236-2h8.236v-8.236h-8.232z" fill="#2f3a5a"/><path d="m53.775 30.44a1.249 1.249 0 0 0 -1.25-1.25h-16.385a1.249 1.249 0 0 0 -1.25 1.25v15.58a7.129 7.129 0 0 0 -3.79-1.075c-3.47 0-6.293 2.324-6.293 5.18s2.819 5.175 6.293 5.175 6.294-2.323 6.294-5.179c0-.074-.023-.142-.027-.215a1.152 1.152 0 0 0 .027-.131v-18.086h13.882v10.4a7.13 7.13 0 0 0 -3.795-1.075c-3.47 0-6.294 2.323-6.294 5.179s2.824 5.18 6.294 5.18 6.294-2.324 6.294-5.18a4.2 4.2 0 0 0 -.053-.428 1.194 1.194 0 0 0 .053-.261z" fill="#d9e2e9"/><path d="m89.307 109.788h-8.934a1 1 0 0 1 0-2h8.934a7.682 7.682 0 0 0 7.674-7.673v-61.361a1 1 0 0 1 2 0v61.36a9.684 9.684 0 0 1 -9.674 9.674z" fill="#2f3a5a"/><path d="m104.071 70.6h-6.091a1 1 0 0 1 0-2h6.091a6.781 6.781 0 0 0 6.773-6.773v-10.906a1 1 0 0 1 2 0v10.906a8.783 8.783 0 0 1 -8.773 8.773z" fill="#2f3a5a"/><path d="m111.9 25.012v-6.644a3.728 3.728 0 0 0 -3.729-3.729h-1.871a10.815 10.815 0 0 0 -7.647 3.167l-2.286 2.286a9.027 9.027 0 0 0 -2.644 6.383v14.625h6.96v-12.36h7.494a3.728 3.728 0 0 0 3.723-3.728z" fill="#9297ab"/><path d="m123.271 30.2h-1.878a10.815 10.815 0 0 0 -7.647 3.167l-2.286 2.286a9.027 9.027 0 0 0 -2.644 6.383v14.628h6.96v-12.359h7.494a3.728 3.728 0 0 0 3.73-3.728v-6.644a3.728 3.728 0 0 0 -3.729-3.733z" fill="#9297ab"/><path d="m111.9 18.37v6.64a3.73 3.73 0 0 1 -3.73 3.73h-7.49v12.36h-6.96v-3.24h3.15v-12.36h7.49a3.73 3.73 0 0 0 3.73-3.73v-6.64a2.625 2.625 0 0 0 -.04-.49h.12a3.73 3.73 0 0 1 3.73 3.73z" fill="#707583"/><path d="m127 33.93v6.65a3.73 3.73 0 0 1 -3.73 3.73h-7.49v12.35h-6.96v-3.24h3.15v-12.35h7.49a3.73 3.73 0 0 0 3.73-3.73v-6.65a2.636 2.636 0 0 0 -.04-.49h.12a3.73 3.73 0 0 1 3.73 3.73z" fill="#707583"/><g fill="#2f3a5a"><path d="m100.68 42.1h-6.961a1 1 0 0 1 -1-1v-14.624a9.958 9.958 0 0 1 2.938-7.09l2.284-2.286a11.737 11.737 0 0 1 8.354-3.46h1.878a4.734 4.734 0 0 1 4.729 4.729v6.644a4.734 4.734 0 0 1 -4.729 4.729h-6.493v11.358a1 1 0 0 1 -1 1zm-5.961-2h4.961v-11.36a1 1 0 0 1 1-1h7.494a2.731 2.731 0 0 0 2.729-2.729v-6.643a2.731 2.731 0 0 0 -2.729-2.729h-1.874a9.751 9.751 0 0 0 -6.94 2.875l-2.29 2.286a7.973 7.973 0 0 0 -2.352 5.676z"/><path d="m115.777 57.664h-6.96a1 1 0 0 1 -1-1v-14.623a9.96 9.96 0 0 1 2.937-7.09l2.285-2.286a11.741 11.741 0 0 1 8.354-3.46h1.878a4.734 4.734 0 0 1 4.729 4.728v6.644a4.734 4.734 0 0 1 -4.729 4.729h-6.494v11.358a1 1 0 0 1 -1 1zm-5.96-2h4.96v-11.359a1 1 0 0 1 1-1h7.494a2.731 2.731 0 0 0 2.729-2.728v-6.644a2.731 2.731 0 0 0 -2.729-2.729h-1.878a9.753 9.753 0 0 0 -6.94 2.875l-2.285 2.285a7.974 7.974 0 0 0 -2.351 5.676z"/></g></g></svg>