<svg height="512" viewBox="0 0 128 128" width="512" xmlns="http://www.w3.org/2000/svg"><g id="number"><text fill="#24253a" font-family="MyriadPro-Regular, Myriad Pro" font-size="40" letter-spacing=".002em" transform="translate(60.261 -966.265)">9<tspan x="-10.3" y="228">19</tspan><tspan x="-10.3" y="456">29</tspan><tspan x="-10.3" y="684">39</tspan><tspan x="-10.3" y="912">49</tspan><tspan x="-10.3" y="1140">59</tspan><tspan x="-10.3" y="1368">69</tspan><tspan x="-10.3" y="1596">79</tspan><tspan x="-10.3" y="1824">89</tspan><tspan x="-10.3" y="2052">99</tspan><tspan x="-20.599" y="2280">109</tspan><tspan x="-20.599" y="2508">119</tspan><tspan x="-20.599" y="2736">129</tspan><tspan x="-20.599" y="2964">139</tspan><tspan x="-20.599" y="3192">149</tspan><tspan x="-20.599" y="3420">159</tspan><tspan x="-20.599" y="3648">169</tspan><tspan x="-20.599" y="3876">179</tspan><tspan x="-20.599" y="4104">189</tspan><tspan x="-20.599" y="4332">199</tspan><tspan x="-20.599" y="4560">209</tspan><tspan x="-20.599" y="4788">219</tspan><tspan x="-20.599" y="5016">229</tspan><tspan x="-20.599" y="5244">239</tspan><tspan x="-20.599" y="5472">249</tspan></text></g><g id="icon"><path d="m83.566 26.156h-39.132l2.169-21.58h34.795z" fill="#b0b3c1"/><path d="m83.566 27.156h-39.131a1 1 0 0 1 -1-1.1l2.168-21.58a1 1 0 0 1 1-.9h34.797a1 1 0 0 1 1 .9l2.169 21.58a1 1 0 0 1 -1 1.1zm-38.026-2h36.921l-1.968-19.58h-32.986z" fill="#2f3a5a"/><path d="m44.434 105.064h39.132l-2.168 21.58h-34.795z" fill="#b0b3c1"/><path d="m81.4 127.644h-34.8a1 1 0 0 1 -1-.9l-2.168-21.58a1 1 0 0 1 1-1.1h39.134a1 1 0 0 1 1 1.1l-2.169 21.58a1 1 0 0 1 -.997.9zm-33.891-2h32.984l1.968-19.58h-36.921z" fill="#2f3a5a"/><rect fill="#b0b3c1" height="11.835" rx=".903" width="4.854" x="95.22" y="48.405"/><path d="m99.171 61.241h-3.048a1.905 1.905 0 0 1 -1.9-1.9v-10.032a1.905 1.905 0 0 1 1.9-1.9h3.048a1.905 1.905 0 0 1 1.9 1.9v10.028a1.905 1.905 0 0 1 -1.9 1.904zm-2.951-2h2.854v-9.836h-2.854z" fill="#2f3a5a"/><rect fill="#b0b3c1" height="11.835" rx=".903" width="4.854" x="95.22" y="70.98"/><path d="m99.171 83.815h-3.048a1.905 1.905 0 0 1 -1.9-1.9v-10.032a1.9 1.9 0 0 1 1.9-1.9h3.048a1.9 1.9 0 0 1 1.9 1.9v10.029a1.905 1.905 0 0 1 -1.9 1.903zm-2.951-2h2.854v-9.835h-2.854z" fill="#2f3a5a"/><rect fill="#b0b3c1" height="11.835" rx=".903" width="4.854" x="27.926" y="48.405"/><path d="m31.877 61.241h-3.048a1.905 1.905 0 0 1 -1.9-1.9v-10.032a1.905 1.905 0 0 1 1.9-1.9h3.048a1.905 1.905 0 0 1 1.9 1.9v10.028a1.905 1.905 0 0 1 -1.9 1.904zm-2.951-2h2.854v-9.836h-2.854z" fill="#2f3a5a"/><rect fill="#b0b3c1" height="11.835" rx=".903" width="4.854" x="27.926" y="70.98"/><path d="m31.877 83.815h-3.048a1.905 1.905 0 0 1 -1.9-1.9v-10.032a1.9 1.9 0 0 1 1.9-1.9h3.048a1.9 1.9 0 0 1 1.9 1.9v10.029a1.905 1.905 0 0 1 -1.9 1.903zm-2.951-2h2.854v-9.835h-2.854z" fill="#2f3a5a"/><path d="m96.78 46.673v37.869a10.077 10.077 0 0 1 -2.952 7.123l-5.672 5.672a10.077 10.077 0 0 1 -7.123 2.952h-34.064a10.077 10.077 0 0 1 -7.126-2.954c-1.984-1.986-3.684-3.688-5.668-5.671a10.078 10.078 0 0 1 -2.954-7.126v-37.861a10.077 10.077 0 0 1 2.949-7.12c1.987-1.988 3.687-3.691 5.673-5.676a10.076 10.076 0 0 1 7.12-2.949h34.075a10.077 10.077 0 0 1 7.118 2.946c1.989 1.986 3.692 3.689 5.677 5.677a10.077 10.077 0 0 1 2.947 7.118z" fill="#707583"/><path d="m96.78 46.673v37.869a10.077 10.077 0 0 1 -2.952 7.123l-5.672 5.672a10.077 10.077 0 0 1 -7.123 2.952h-34.064a10.077 10.077 0 0 1 -7.126-2.954c-1.984-1.986-3.684-3.688-5.668-5.671a10.078 10.078 0 0 1 -2.954-7.126v-37.861a10.077 10.077 0 0 1 2.949-7.12c1.987-1.988 3.687-3.691 5.673-5.676a10.076 10.076 0 0 1 7.12-2.949h34.075a10.077 10.077 0 0 1 7.118 2.946c1.989 1.986 3.692 3.689 5.677 5.677a10.077 10.077 0 0 1 2.947 7.118z" fill="#d9e2e9"/><path d="m48.064 94.935a6.536 6.536 0 0 1 -4.578-1.888l-5.305-5.277a6.461 6.461 0 0 1 -1.9-4.552v-35.218a6.459 6.459 0 0 1 1.9-4.548l5.307-5.28a6.54 6.54 0 0 1 4.574-1.883h31.882a6.541 6.541 0 0 1 4.573 1.883l5.31 5.278a6.462 6.462 0 0 1 1.891 4.546v35.23a6.46 6.46 0 0 1 -1.9 4.549l-5.308 5.278a6.537 6.537 0 0 1 -4.576 1.885z" fill="#707583"/><path d="m93.833 39.555c-1.986-1.988-3.689-3.692-5.677-5.677q-.348-.348-.727-.657l-2-10.824h-42.855l-2 10.825q-.378.31-.728.659c-1.986 1.985-3.687 3.688-5.673 5.676a10.077 10.077 0 0 0 -2.949 7.12v37.861a10.078 10.078 0 0 0 2.954 7.125c1.984 1.983 3.684 3.685 5.668 5.671q.348.349.727.659l2 10.831h42.854l2-10.829q.377-.31.725-.657l5.672-5.672a10.077 10.077 0 0 0 2.952-7.123v-37.87a10.077 10.077 0 0 0 -2.943-7.118z" fill="#c1cdd3"/><path d="m91.462 42.224c-1.828-1.8-3.4-3.349-5.226-5.15q-.321-.316-.669-.6l-1.843-9.819h-39.447l-1.844 9.82q-.348.282-.67.6c-1.828 1.8-3.394 3.346-5.222 5.15a9.075 9.075 0 0 0 -2.714 6.459v34.348a9.076 9.076 0 0 0 2.719 6.468c1.827 1.8 3.391 3.343 5.218 5.145q.321.316.669.6l1.845 9.825h39.446l1.844-9.824q.347-.281.668-.6l5.221-5.146a9.075 9.075 0 0 0 2.717-6.462v-34.357a9.075 9.075 0 0 0 -2.712-6.457z" fill="#d9e2e9"/><path d="m85.427 109.824h-42.853a1 1 0 0 1 -.983-.818l-1.94-10.481c-.177-.156-.35-.317-.517-.485l-5.667-5.669a11.156 11.156 0 0 1 -3.247-7.833v-37.861a11.152 11.152 0 0 1 3.242-7.827l5.673-5.677c.168-.168.341-.329.517-.483l1.938-10.475a1 1 0 0 1 .983-.818h42.854a1 1 0 0 1 .983.818l1.938 10.474c.176.154.348.315.514.481 1.989 1.986 3.692 3.689 5.679 5.679a11.153 11.153 0 0 1 3.238 7.824v37.869a11.151 11.151 0 0 1 -3.244 7.83l-5.672 5.672c-.167.167-.339.327-.514.481l-1.939 10.48a1 1 0 0 1 -.983.819zm-42.021-2h41.189l1.853-10.012a1 1 0 0 1 .348-.59c.227-.187.445-.383.655-.593l5.671-5.671a9.137 9.137 0 0 0 2.658-6.416v-37.869a9.137 9.137 0 0 0 -2.654-6.411c-1.984-1.988-3.687-3.691-5.676-5.676-.209-.209-.429-.406-.655-.593a1 1 0 0 1 -.348-.59l-1.852-10.003h-41.189l-1.851 10a1 1 0 0 1 -.349.59q-.341.281-.657.595l-5.672 5.674a9.144 9.144 0 0 0 -2.656 6.414v37.865a9.139 9.139 0 0 0 2.661 6.418l5.669 5.671c.21.21.428.407.654.593a1 1 0 0 1 .349.59z" fill="#2f3a5a"/><path d="m91.719 49.6v32.019a8.521 8.521 0 0 1 -2.5 6.023l-4.8 4.8a8.521 8.521 0 0 1 -6.023 2.5h-28.796a8.521 8.521 0 0 1 -6.026-2.5c-1.678-1.68-3.115-3.119-4.793-4.8a8.522 8.522 0 0 1 -2.5-6.025v-32.017a8.521 8.521 0 0 1 2.493-6.021c1.68-1.681 3.118-3.121 4.8-4.8a8.52 8.52 0 0 1 6.021-2.494h28.813a8.521 8.521 0 0 1 6.019 2.491c1.681 1.679 3.122 3.119 4.8 4.8a8.521 8.521 0 0 1 2.492 6.024z" fill="#b0b3c1"/><path d="m91.72 49.6v32.02a8.49 8.49 0 0 1 -2.5 6.02c-1.67 1.68-3.11 3.12-4.79 4.8a8.521 8.521 0 0 1 -6.03 2.49h-28.8a8.563 8.563 0 0 1 -6.03-2.49c-1.67-1.68-3.11-3.12-4.79-4.8a8.534 8.534 0 0 1 -2.29-4.16c1.19 1.2 2.32 2.33 3.58 3.59a8.531 8.531 0 0 0 6.03 2.5h28.8a8.491 8.491 0 0 0 6.02-2.5l4.8-4.8a8.49 8.49 0 0 0 2.5-6.02v-32.02a8.375 8.375 0 0 0 -.21-1.87c.39.4.8.8 1.22 1.22a8.522 8.522 0 0 1 2.49 6.02z" fill="#9297ab"/><path d="m78.4 95.935h-28.8a9.584 9.584 0 0 1 -6.733-2.792l-4.792-4.8a9.584 9.584 0 0 1 -2.791-6.732v-32.011a9.584 9.584 0 0 1 2.786-6.728l4.8-4.8a9.584 9.584 0 0 1 6.728-2.786h28.81a9.588 9.588 0 0 1 6.726 2.784l4.8 4.8a9.589 9.589 0 0 1 2.785 6.73v32.019a9.585 9.585 0 0 1 -2.789 6.73l-4.8 4.8a9.584 9.584 0 0 1 -6.73 2.786zm-28.806-58.649a7.57 7.57 0 0 0 -5.313 2.2l-4.8 4.8a7.57 7.57 0 0 0 -2.2 5.314v32.015a7.569 7.569 0 0 0 2.205 5.318l4.793 4.8a7.571 7.571 0 0 0 5.318 2.2h28.803a7.57 7.57 0 0 0 5.315-2.2l4.8-4.8a7.57 7.57 0 0 0 2.2-5.316v-32.017a7.573 7.573 0 0 0 -2.2-5.312l-4.8-4.8a7.569 7.569 0 0 0 -5.312-2.2z" fill="#2f3a5a"/><path d="m42.99 56.056h42.02v19.109h-42.02z" fill="#5fc4f8"/><path d="m85.01 56.06v3.68h-39.2v15.42h-2.82v-19.1z" fill="#3dbce9"/><g fill="#2f3a5a"><path d="m85.011 76.165h-42.021a1 1 0 0 1 -1-1v-19.109a1 1 0 0 1 1-1h42.021a1 1 0 0 1 1 1v19.109a1 1 0 0 1 -1 1zm-41.021-2h40.021v-17.109h-40.021z"/><path d="m71.215 70.755h-2.415a2.328 2.328 0 0 1 -2.325-2.325v-5.137a2.328 2.328 0 0 1 2.325-2.325h2.416a2.328 2.328 0 0 1 2.325 2.325v5.137a2.328 2.328 0 0 1 -2.326 2.325zm-2.415-7.787a.325.325 0 0 0 -.325.325v5.137a.325.325 0 0 0 .325.325h2.416a.325.325 0 0 0 .325-.325v-5.137a.325.325 0 0 0 -.325-.325z"/><path d="m79.734 70.755h-2.415a2.328 2.328 0 0 1 -2.325-2.325v-5.137a2.328 2.328 0 0 1 2.325-2.325h2.415a2.328 2.328 0 0 1 2.325 2.325v5.137a2.328 2.328 0 0 1 -2.325 2.325zm-2.415-7.787a.325.325 0 0 0 -.325.325v5.137a.325.325 0 0 0 .325.325h2.415a.325.325 0 0 0 .325-.325v-5.137a.325.325 0 0 0 -.325-.325z"/><path d="m50.334 70.755h-2.416a2.328 2.328 0 0 1 -2.325-2.325v-5.137a2.328 2.328 0 0 1 2.325-2.325h2.416a2.328 2.328 0 0 1 2.325 2.325v5.137a2.328 2.328 0 0 1 -2.325 2.325zm-2.416-7.787a.325.325 0 0 0 -.325.325v5.137a.325.325 0 0 0 .325.325h2.416a.325.325 0 0 0 .325-.325v-5.137a.325.325 0 0 0 -.325-.325z"/><path d="m58.854 70.755h-2.416a2.328 2.328 0 0 1 -2.325-2.325v-5.137a2.328 2.328 0 0 1 2.325-2.325h2.416a2.328 2.328 0 0 1 2.325 2.325v5.137a2.328 2.328 0 0 1 -2.325 2.325zm-2.416-7.787a.325.325 0 0 0 -.325.325v5.137a.325.325 0 0 0 .325.325h2.416a.325.325 0 0 0 .325-.325v-5.137a.325.325 0 0 0 -.325-.325z"/><path d="m63 62.966h2v1.814h-2z"/><path d="m63 66.44h2v1.814h-2z"/></g></g></svg>